<?xml version="1.0" encoding="utf-8"?>
<!-- Generator: Adobe Illustrator 16.0.0, SVG Export Plug-In . SVG Version: 6.00 Build 0)  -->
<!DOCTYPE svg PUBLIC "-//W3C//DTD SVG 1.1//EN" "http://www.w3.org/Graphics/SVG/1.1/DTD/svg11.dtd">
<svg version="1.1" xmlns="http://www.w3.org/2000/svg" xmlns:xlink="http://www.w3.org/1999/xlink" x="0px" y="0px" width="56px"
	 height="57.667px" viewBox="0 0 56 57.667" enable-background="new 0 0 56 57.667" xml:space="preserve">
<g id="Layer_3" display="none">
	<rect x="-102.9" y="-62" display="inline" fill="#00AEEF" width="224.9" height="219.584"/>
</g>
<g id="Layer_2">
	<g id="circle">
	</g>
	<g display="none">
		<path display="inline" fill-rule="evenodd" clip-rule="evenodd" fill="#FFFFFF" d="M121.123,183.62c-91.25,0-182.5,0-273.768,0
			c0-91.238,0-182.477,0-273.75c91.245,0,182.506,0,273.768,0C121.123,1.12,121.123,92.369,121.123,183.62z M-54.16,90.293
			c3.02,0,6.04-0.013,9.06,0.006c1.83,0.011,3.15-0.738,4.077-2.349c11.906-20.7,23.824-41.392,35.765-62.071
			c0.955-1.654,0.96-3.164-0.002-4.807c-3.029-5.17-6.003-10.373-9-15.561c-0.152-0.266-0.297-0.541-0.488-0.776
			c-0.605-0.745-1.236-0.746-1.833,0.028c-0.318,0.413-0.554,0.891-0.816,1.344c-11.68,20.225-23.358,40.451-35.037,60.675
			c-4.047,7.006-8.097,14.011-12.14,21.02c-1.072,1.857-0.697,2.477,1.487,2.49c0.219,0.002,0.438,0,0.656,0
			C-59.674,90.293-56.917,90.293-54.16,90.293z M23.402,90.293c1.75,0,3.501,0.002,5.251,0c1.27,0,2.541,0.043,3.807-0.019
			c1.328-0.064,1.693-0.749,1.105-1.925c-0.116-0.234-0.263-0.453-0.395-0.681C22.632,69.414,12.082,51.167,1.578,32.893
			c-0.937-1.63-1.858-2.001-2.995,0.04c-2.828,5.081-5.754,10.11-8.7,15.124c-1.021,1.736-1.011,3.303,0.038,5.03
			c7.033,11.591,14.036,23.2,21.013,34.825c0.983,1.639,2.326,2.398,4.198,2.387C17.888,90.279,20.645,90.293,23.402,90.293z
			 M-15.046,90.293c5.514,0,11.026,0.002,16.539,0c0.653-0.001,1.393,0.104,1.803-0.529c0.469-0.724-0.079-1.327-0.435-1.916
			c-5.621-9.326-11.268-18.635-16.85-27.983c-1.124-1.884-2.057-1.553-2.961,0.034c-5.302,9.309-10.678,18.574-16.026,27.855
			c-1.115,1.936-0.756,2.537,1.522,2.538C-25.984,90.297-20.515,90.293-15.046,90.293z"/>
		<path display="inline" fill-rule="evenodd" clip-rule="evenodd" d="M-54.16,90.293c-2.757,0-5.515,0-8.271,0
			c-0.219,0-0.438,0.002-0.656,0c-2.185-0.014-2.56-0.633-1.487-2.49c4.043-7.009,8.093-14.014,12.14-21.02
			c11.679-20.225,23.357-40.451,35.037-60.675c0.263-0.453,0.498-0.931,0.816-1.344c0.597-0.774,1.228-0.773,1.833-0.028
			c0.191,0.235,0.336,0.511,0.488,0.776c2.997,5.188,5.971,10.391,9,15.561c0.962,1.643,0.957,3.152,0.002,4.807
			C-17.199,46.559-29.117,67.25-41.023,87.95c-0.927,1.61-2.247,2.359-4.077,2.349C-48.12,90.28-51.14,90.293-54.16,90.293z"/>
		<path display="inline" fill-rule="evenodd" clip-rule="evenodd" d="M23.402,90.293c-2.757,0-5.514-0.014-8.271,0.006
			c-1.872,0.012-3.215-0.748-4.198-2.387C3.957,76.287-3.046,64.678-10.08,53.087c-1.049-1.728-1.059-3.294-0.038-5.03
			c2.946-5.014,5.872-10.043,8.7-15.124c1.137-2.041,2.059-1.67,2.995-0.04C12.082,51.167,22.632,69.414,33.17,87.669
			c0.132,0.228,0.278,0.446,0.395,0.681c0.588,1.176,0.223,1.86-1.105,1.925c-1.266,0.062-2.537,0.019-3.807,0.019
			C26.903,90.295,25.152,90.293,23.402,90.293z"/>
		<path display="inline" fill-rule="evenodd" clip-rule="evenodd" fill="#808285" d="M-15.046,90.293
			c-5.469,0-10.938,0.004-16.407-0.001c-2.278-0.001-2.638-0.603-1.522-2.538c5.349-9.281,10.725-18.547,16.026-27.855
			c0.904-1.587,1.837-1.918,2.961-0.034c5.582,9.349,11.229,18.657,16.85,27.983c0.355,0.589,0.903,1.192,0.435,1.916
			c-0.41,0.634-1.149,0.528-1.803,0.529C-4.02,90.295-9.533,90.293-15.046,90.293z"/>
	</g>
	<path display="none" fill-rule="evenodd" clip-rule="evenodd" d="M80.15,30.89c5.469,0,10.938-0.004,16.408,0.002
		c2.277,0,2.637,0.602,1.521,2.537c-5.348,9.281-10.725,18.547-16.025,27.855c-0.904,1.588-1.838,1.918-2.961,0.035
		c-5.582-9.35-11.229-18.658-16.85-27.984c-0.355-0.588-0.904-1.191-0.436-1.916c0.41-0.633,1.15-0.527,1.803-0.529
		C69.125,30.888,74.637,30.89,80.15,30.89z"/>
	<path display="none" fill-rule="evenodd" clip-rule="evenodd" fill="#808285" d="M35.525,3.692c2.757,0,5.515,0,8.271,0
		c0.219,0,0.438-0.002,0.656,0c2.185,0.014,2.56,0.633,1.487,2.49c-4.043,7.009-8.093,14.014-12.14,21.02
		C22.122,47.426,10.443,67.652-1.236,87.877c-0.263,0.455-0.498,0.932-0.816,1.344c-0.597,0.775-1.228,0.773-1.833,0.029
		c-0.191-0.236-0.336-0.512-0.488-0.775c-2.997-5.189-5.971-10.391-9-15.561c-0.962-1.645-0.957-3.152-0.002-4.807
		c11.94-20.682,23.858-41.372,35.765-62.072c0.927-1.61,2.247-2.359,4.077-2.349C29.485,3.705,32.506,3.692,35.525,3.692z"/>
	<path display="none" fill-rule="evenodd" clip-rule="evenodd" fill="#808285" d="M36.265,17.373c2.757,0,5.514,0.014,8.271-0.006
		c1.872-0.012,3.215,0.748,4.198,2.387C55.71,31.378,62.713,42.988,69.746,54.58c1.049,1.727,1.059,3.293,0.038,5.029
		c-2.946,5.015-5.872,10.043-8.7,15.125c-1.137,2.041-2.059,1.67-2.995,0.04C47.585,56.5,37.034,38.252,26.496,19.998
		c-0.132-0.229-0.278-0.447-0.395-0.682c-0.588-1.176-0.223-1.859,1.105-1.924c1.266-0.063,2.537-0.02,3.807-0.02
		C32.764,17.371,34.515,17.373,36.265,17.373z"/>
	<path display="none" fill-rule="evenodd" clip-rule="evenodd" d="M110.13,3.692c2.757,0,5.515,0,8.271,0
		c0.219,0,0.438-0.002,0.656,0c2.185,0.014,2.56,0.633,1.487,2.49c-4.043,7.01-8.093,14.014-12.14,21.02
		c-11.679,20.224-23.357,40.45-35.037,60.674c-0.263,0.455-0.498,0.932-0.816,1.344c-0.597,0.775-1.228,0.773-1.833,0.029
		c-0.191-0.236-0.336-0.512-0.488-0.775c-2.998-5.189-5.971-10.391-9-15.56c-0.962-1.645-0.957-3.152-0.002-4.807
		C73.169,47.426,85.087,26.735,96.993,6.036c0.927-1.611,2.247-2.359,4.077-2.35C104.09,3.706,107.11,3.692,110.13,3.692z"/>
	<path display="none" fill-rule="evenodd" clip-rule="evenodd" d="M25.607,17.373c2.757,0,5.514,0.014,8.271-0.006
		c1.872-0.012,3.215,0.748,4.198,2.387c6.977,11.625,13.979,23.235,21.013,34.826c1.049,1.727,1.059,3.293,0.038,5.029
		c-2.946,5.016-5.872,10.043-8.7,15.125c-1.137,2.041-2.059,1.67-2.995,0.041C36.927,56.499,26.376,38.252,15.838,19.998
		c-0.132-0.229-0.278-0.447-0.395-0.682c-0.588-1.176-0.223-1.859,1.105-1.924c1.266-0.063,2.537-0.02,3.807-0.02
		C22.106,17.371,23.857,17.373,25.607,17.373z"/>
	<path display="none" fill-rule="evenodd" clip-rule="evenodd" d="M69.51,62.601c-5.469,0-10.938,0.004-16.406-0.001
		c-2.279-0.001-2.639-0.603-1.523-2.538c5.35-9.281,10.725-18.547,16.027-27.855c0.904-1.587,1.836-1.918,2.961-0.034
		c5.582,9.349,11.229,18.657,16.85,27.983c0.355,0.589,0.902,1.192,0.434,1.916c-0.41,0.634-1.148,0.528-1.803,0.529
		C80.537,62.603,75.023,62.601,69.51,62.601z"/>
	<path display="none" fill-rule="evenodd" clip-rule="evenodd" d="M75.86,25.825c1.396,2.377,2.78,4.76,4.194,7.127
		c0.96,1.607,0.984,3.15,0.071,4.828c-6.489,11.906-12.952,23.824-19.382,35.762c-0.955,1.779-2.302,2.58-4.315,2.58
		c-5.816,0-11.633,0.027-17.449,0.162c-2.334,0.055-2.481-0.928-1.551-2.561c10.434-18.316,20.819-36.656,31.219-54.99
		c0.13-0.23,0.244-0.467,0.388-0.688c0.717-1.102,1.49-1.133,2.219-0.02c0.695,1.059,1.303,2.178,1.946,3.27
		C74.088,22.806,74.973,24.317,75.86,25.825z"/>
	<path display="none" fill-rule="evenodd" clip-rule="evenodd" d="M-13.758,89.798c-2.758,0-5.516,0-8.271,0
		c-0.219,0-0.438,0.002-0.656,0c-2.186-0.014-2.561-0.633-1.488-2.49c4.043-7.008,8.094-14.014,12.141-21.02
		C-0.355,46.065,11.324,25.84,23.003,5.615c0.264-0.455,0.498-0.932,0.816-1.344c0.598-0.775,1.229-0.773,1.834-0.029
		c0.191,0.236,0.336,0.512,0.488,0.775c2.996,5.189,5.971,10.391,9,15.561c0.962,1.645,0.957,3.152,0.002,4.807
		C23.202,46.065,11.285,66.755-0.621,87.456c-0.928,1.609-2.248,2.359-4.078,2.348C-7.719,89.786-10.738,89.798-13.758,89.798z"/>
	<path display="none" fill-rule="evenodd" clip-rule="evenodd" d="M38.791,76.119c-2.757,0-5.514-0.014-8.271,0.006
		c-1.872,0.012-3.215-0.748-4.198-2.387C19.346,62.113,12.343,50.504,5.31,38.912c-1.049-1.727-1.059-3.293-0.039-5.03
		c2.947-5.016,5.873-10.043,8.701-15.125c1.137-2.041,2.059-1.67,2.995-0.041C27.471,36.992,38.021,55.24,48.56,73.494
		c0.132,0.229,0.278,0.447,0.395,0.682c0.588,1.176,0.223,1.859-1.105,1.924c-1.266,0.063-2.537,0.02-3.807,0.02
		C42.292,76.121,40.541,76.119,38.791,76.119z"/>
	<g>
		<path fill="#FFFFFF" stroke="#FFFFFF" stroke-miterlimit="10" d="M28.339,5.464c1.897,0,3.651-0.024,5.276-0.063
			c-1.701-0.366-3.466-0.56-5.277-0.56c-13.807,0-25,11.193-25,25c0,1.783,0.188,3.521,0.542,5.199
			c0.048-1.598,0.081-3.325,0.081-5.199C3.962,16.377,14.876,5.464,28.339,5.464z"/>
		<path fill="#FFFFFF" stroke="#FFFFFF" stroke-miterlimit="10" d="M52.778,24.563c-0.039,1.625-0.063,3.38-0.063,5.278
			c0,13.462-10.913,24.376-24.375,24.376c-1.997,0-3.832,0.006-5.526,0.01c1.778,0.401,3.626,0.613,5.525,0.613
			c13.808,0,25-11.192,25-25C53.339,28.029,53.145,26.264,52.778,24.563z"/>
		<path fill="#FFFFFF" stroke="#FFFFFF" stroke-miterlimit="10" d="M48.686,19.494c-0.055,0-0.111,0-0.166,0
			c-0.698,0-1.396,0-2.094,0c-0.764,0-1.529,0.003-2.294-0.001c-0.463-0.002-0.797,0.187-1.032,0.595
			c-3.014,5.241-6.032,10.479-9.055,15.715c-0.242,0.419-0.243,0.801,0,1.217c0.767,1.309,1.52,2.626,2.278,3.939
			c0.039,0.066,0.075,0.137,0.124,0.196c0.153,0.188,0.313,0.189,0.464-0.007c0.081-0.104,0.14-0.226,0.207-0.341
			c2.957-5.12,5.913-10.241,8.87-15.361c1.024-1.774,2.05-3.547,3.073-5.322C49.334,19.654,49.239,19.497,48.686,19.494z"/>
		<path fill="#FFFFFF" stroke="#FFFFFF" stroke-miterlimit="10" d="M23.824,20.778c2.668,4.621,5.339,9.241,7.999,13.868
			c0.237,0.412,0.47,0.507,0.758-0.01c0.716-1.287,1.457-2.56,2.203-3.83c0.258-0.439,0.255-0.836-0.01-1.273
			c-1.781-2.935-3.554-5.874-5.32-8.817c-0.249-0.415-0.589-0.607-1.063-0.604c-0.698,0.005-1.396,0.001-2.094,0.001
			c-0.443,0-0.886,0-1.33,0c-0.321,0-0.643-0.011-0.963,0.005c-0.336,0.017-0.429,0.189-0.28,0.487
			C23.753,20.665,23.791,20.72,23.824,20.778z"/>
		<path fill="#FFFFFF" stroke="#FFFFFF" stroke-miterlimit="10" d="M7.992,42.164c0.055,0,0.111,0,0.166,0c0.698,0,1.396,0,2.094,0
			c0.764,0,1.529-0.003,2.293,0.001c0.463,0.003,0.798-0.187,1.033-0.595c3.014-5.24,6.031-10.479,9.054-15.714
			c0.242-0.419,0.244-0.8,0-1.217c-0.767-1.309-1.52-2.625-2.278-3.939c-0.039-0.067-0.075-0.137-0.124-0.196
			c-0.153-0.188-0.313-0.189-0.464,0.007c-0.081,0.104-0.14,0.225-0.207,0.34c-2.957,5.12-5.914,10.241-8.87,15.361
			c-1.024,1.773-2.05,3.547-3.074,5.321C7.343,42.004,7.438,42.16,7.992,42.164z"/>
		<path fill="#FFFFFF" stroke="#FFFFFF" stroke-miterlimit="10" d="M32.854,40.88c-2.667-4.621-5.339-9.241-7.998-13.868
			c-0.237-0.413-0.471-0.506-0.758,0.01c-0.716,1.287-1.457,2.56-2.203,3.829c-0.258,0.439-0.256,0.836,0.01,1.273
			c1.78,2.935,3.554,5.874,5.32,8.816c0.249,0.415,0.589,0.607,1.063,0.604c0.698-0.005,1.396-0.001,2.094-0.001
			c0.443,0,0.886,0,1.329,0c0.321,0,0.644,0.011,0.964-0.005c0.336-0.017,0.429-0.189,0.28-0.487
			C32.924,40.993,32.887,40.938,32.854,40.88z"/>
	</g>
</g>
</svg>